<svg xmlns="http://www.w3.org/2000/svg" viewBox="0 0 960 320" role="img" aria-label="pi-workflows: multi-step agent workflows with plan, implement, verify, review, a fix loop, and a clean finish">
  <defs>
    <style>
      .mono { font-family: ui-monospace, "SFMono-Regular", Menlo, Consolas, monospace; }
      .sans { font-family: -apple-system, "Segoe UI", Helvetica, Arial, sans-serif; }
      .node { fill: #161b22; stroke: #58a6ff; stroke-width: 2; }
      .nodelabel { fill: #e6edf3; font-size: 12px; font-weight: 700; text-anchor: middle; }
      .edge { stroke: #8b949e; stroke-width: 2; fill: none; }
    </style>
    <marker id="arrow" markerWidth="8" markerHeight="8" refX="6" refY="4" orient="auto">
      <path d="M0,0 L7,4 L0,8 Z" fill="#8b949e"/>
    </marker>
    <marker id="arrow-green" markerWidth="8" markerHeight="8" refX="6" refY="4" orient="auto">
      <path d="M0,0 L7,4 L0,8 Z" fill="#3fb950"/>
    </marker>
    <marker id="arrow-orange" markerWidth="8" markerHeight="8" refX="6" refY="4" orient="auto">
      <path d="M0,0 L7,4 L0,8 Z" fill="#d29922"/>
    </marker>
  </defs>

  <rect x="1" y="1" width="958" height="318" rx="16" fill="#0d1117" stroke="#30363d" stroke-width="2"/>

  <!-- Left: name, tagline, command line (content spans y 76-244, centered on 160) -->
  <g>
    <text x="56" y="110" class="mono" font-size="46" font-weight="700">
      <tspan fill="#58a6ff">pi</tspan><tspan fill="#e6edf3">-workflows</tspan>
    </text>
    <text x="56" y="148" class="sans" font-size="17" fill="#8b949e">Multi-step agent workflows for the pi coding agent.</text>
    <text x="56" y="174" class="sans" font-size="17" fill="#8b949e">Define TypeScript graphs, run and watch them live.</text>

    <rect x="56" y="200" width="392" height="44" rx="8" fill="#161b22" stroke="#30363d"/>
    <text x="74" y="228" class="mono" font-size="15">
      <tspan fill="#3fb950">$</tspan><tspan fill="#e6edf3" dx="8">pi install npm:@osolmaz/pi-workflows</tspan>
    </text>
  </g>

  <!-- Right: representative workflow graph -->
  <g>
    <!-- main flow: plan -> implement -> verify -->
    <line class="edge" x1="584" y1="90" x2="651" y2="90" marker-end="url(#arrow)"/>
    <line class="edge" x1="749" y1="90" x2="810" y2="90" marker-end="url(#arrow)"/>
    <!-- verify -> review -->
    <line class="edge" x1="852" y1="104" x2="852" y2="172" marker-end="url(#arrow)"/>
    <!-- review -> fix -->
    <line class="edge" x1="818" y1="190" x2="736" y2="190" marker-end="url(#arrow)"/>
    <!-- fix -> verify (retry loop) -->
    <path d="M 718,176 Q 776,134 820,109" fill="none" stroke="#d29922" stroke-width="2" stroke-dasharray="5 4" marker-end="url(#arrow-orange)"/>
    <!-- review -> done (clean path under fix) -->
    <path d="M 852,204 C 828,250 600,254 558,212" fill="none" stroke="#3fb950" stroke-width="2" marker-end="url(#arrow-green)"/>
    <text x="707" y="230" class="mono" font-size="11" fill="#3fb950" text-anchor="middle">clean</text>

    <!-- nodes -->
    <rect class="node" x="528" y="76" width="56" height="28" rx="7"/>
    <text class="mono nodelabel" x="556" y="94">plan</text>

    <rect class="node" x="659" y="76" width="90" height="28" rx="7"/>
    <text class="mono nodelabel" x="704" y="94">implement</text>

    <rect class="node" x="818" y="76" width="68" height="28" rx="7"/>
    <text class="mono nodelabel" x="852" y="94">verify</text>

    <rect class="node" x="818" y="176" width="68" height="28" rx="7"/>
    <text class="mono nodelabel" x="852" y="194">review</text>

    <rect x="680" y="176" width="48" height="28" rx="7" fill="#161b22" stroke="#d29922" stroke-width="2"/>
    <text class="mono nodelabel" x="704" y="194">fix</text>

    <rect x="522" y="176" width="68" height="28" rx="7" fill="#161b22" stroke="#3fb950" stroke-width="2"/>
    <text class="mono nodelabel" x="556" y="194" fill="#3fb950">&#10003; done</text>
  </g>
</svg>
